<?xml version="1.0" encoding="UTF-8"?>
<svg width="128px" height="128px" viewBox="0 0 128 128" version="1.1" xmlns="http://www.w3.org/2000/svg" xmlns:xlink="http://www.w3.org/1999/xlink">
    <!-- Generator: Sketch 53.2 (72643) - https://sketchapp.com -->
    <title>email</title>
    <desc>Created with Sketch.</desc>
    <g id="email" stroke="none" stroke-width="1" fill="none" fill-rule="evenodd">
        <g id="Group" transform="translate(0.000000, 19.047619)" fill="#FFFFFF" fill-rule="nonzero">
            <path d="M12.1904762,0.551893333 C5.42704762,0.551893333 1.52380954e-07,6.24073143 1.52380954e-07,13.075779 L1.52380954e-07,76.3614476 C1.52380954e-07,83.1963429 5.42704762,88.9328762 12.1904762,88.9328762 L115.809524,88.9328762 C122.573257,88.9328762 128,83.1963429 128,76.3614476 L128,13.075779 C128,6.24073143 122.573257,0.551893333 115.809524,0.551893333 L12.1904762,0.551893333 L12.1904762,0.551893333 Z M12.1904762,6.64713143 L115.809524,6.64713143 C116.703543,6.64713143 117.56861,6.86534095 118.33341,7.21856 L67.9524571,53.8377143 C65.6246857,55.9910095 62.5225143,55.9913143 60.1904762,53.8377143 L9.71428571,7.21856 C10.4693333,6.87646476 11.3113905,6.64713143 12.1904762,6.64713143 Z M6.19062857,12.266179 L41.9524571,45.3138286 L6.85714286,79.4566095 C6.39405714,78.5418667 6.0952381,77.5050667 6.0952381,76.3614476 L6.0952381,13.075779 C6.0952381,12.7957029 6.1607619,12.5345219 6.1912381,12.266179 L6.19062857,12.266179 Z M121.809676,12.3134171 C121.837105,12.5666743 121.904152,12.8115505 121.904152,13.0753219 L121.904152,76.3609905 C121.904152,77.4806857 121.6352,78.5071238 121.189943,79.4086095 L86.190019,45.2658286 L121.809067,12.3134171 L121.809676,12.3134171 Z M81.761981,49.3609143 L116,82.837181 C115.936,82.837181 115.873524,82.837181 115.809524,82.837181 L12.1904762,82.837181 C12.1417143,82.837181 12.096,82.8382476 12.0472381,82.837181 L46.4281905,49.4086095 L56.0472381,58.3132952 C60.5691429,62.4897524 67.5739429,62.4955429 72.0949333,58.3132952 L81.7615238,49.3609143 L81.761981,49.3609143 Z" id="Shape"></path>
        </g>
    </g>
</svg>