<?xml version="1.0" encoding="UTF-8"?>
<svg width="128px" height="128px" viewBox="0 0 128 128" version="1.1" xmlns="http://www.w3.org/2000/svg" xmlns:xlink="http://www.w3.org/1999/xlink">
    <!-- Generator: Sketch 53.2 (72643) - https://sketchapp.com -->
    <title>github</title>
    <desc>Created with Sketch.</desc>
    <g id="github" stroke="none" stroke-width="1" fill="none" fill-rule="evenodd">
        <g id="Group" transform="translate(0.000000, 1.586777)" fill="#161514">
            <path d="M63.8815207,0 C28.6053554,0 0,28.6000661 0,63.8815207 C0,92.1060496 18.304,116.05157 43.6860826,124.498512 C46.8786777,125.089851 48.0507769,123.112727 48.0507769,121.425455 C48.0507769,119.902149 47.9915372,114.86995 47.9640331,109.532033 C30.1921322,113.396364 26.4420496,101.994843 26.4420496,101.994843 C23.5361322,94.6110413 19.349157,92.6476694 19.349157,92.6476694 C13.5531901,88.682843 19.7860496,88.7642975 19.7860496,88.7642975 C26.2008595,89.2149421 29.5785785,95.3473058 29.5785785,95.3473058 C35.2761653,105.113388 44.522843,102.289983 48.1681983,100.657719 C48.7415537,96.5289256 50.3970909,93.7108099 52.224,92.1155702 C38.0350413,90.5002314 23.1193388,85.0226777 23.1193388,60.5450579 C23.1193388,53.5706446 25.6148099,47.872 29.7012893,43.3983471 C29.0380165,41.7893554 26.851438,35.2920331 30.3201322,26.4928264 C30.3201322,26.4928264 35.6844959,24.7759339 47.8920992,33.0409256 C52.9877686,31.6255207 58.4526281,30.9157025 63.8815207,30.8913719 C69.3104132,30.9157025 74.7795041,31.6255207 79.8846942,33.0409256 C92.0774876,24.7759339 97.4344463,26.4928264 97.4344463,26.4928264 C100.911603,35.2920331 98.7239669,41.7893554 98.0606942,43.3983471 C102.156694,47.872 104.63524,53.5706446 104.63524,60.5450579 C104.63524,85.0808595 89.6909752,90.4833058 75.4660496,92.0647934 C77.7573554,94.0472066 79.7990083,97.9348099 79.7990083,103.894744 C79.7990083,112.442182 79.7249587,119.321388 79.7249587,121.425455 C79.7249587,123.125421 80.874843,125.117355 84.1129256,124.49005 C109.481256,116.033587 127.761983,92.0965289 127.761983,63.8815207 C127.761983,28.6000661 99.1608595,0 63.8815207,0" id="Fill-5"></path>
            <path d="M24.1951736,91.7199339 C24.0544793,92.0372893 23.5551736,92.1324959 23.1002975,91.9145785 C22.6369587,91.7061818 22.3767273,91.2735207 22.5269421,90.9551074 C22.6644628,90.6282314 23.1648264,90.5372562 23.6271074,90.7562314 C24.0915041,90.9646281 24.3559669,91.4015207 24.1951736,91.7199339" id="Fill-6"></path>
            <path d="M26.7826777,94.6057521 C26.4780165,94.8881983 25.8824463,94.7570248 25.4783471,94.3106116 C25.0604959,93.8652562 24.9822149,93.269686 25.2911074,92.9830083 C25.6052893,92.700562 26.182876,92.8327934 26.6017851,93.2781488 C27.0196364,93.7287934 27.1010909,94.3201322 26.7826777,94.6057521" id="Fill-7"></path>
            <path d="M29.3014215,98.2849587 C28.9100165,98.5568264 28.2700165,98.3018843 27.8743802,97.7338182 C27.4829752,97.1657521 27.4829752,96.4844959 27.882843,96.2115702 C28.2795372,95.9386446 28.9100165,96.1840661 29.3109421,96.7479008 C29.7012893,97.3254876 29.7012893,98.0067438 29.3014215,98.2849587" id="Fill-8"></path>
            <path d="M32.7521322,101.839339 C32.4019835,102.225455 31.6561983,102.121785 31.1103471,101.594975 C30.5518017,101.079802 30.3962975,100.348826 30.7475041,99.9627107 C31.1018843,99.5755372 31.8519008,99.6844959 32.4019835,100.207074 C32.9562975,100.72119 33.1255537,101.457455 32.7521322,101.839339" id="Fill-9"></path>
            <path d="M37.5124628,103.903207 C37.3580165,104.40357 36.6397355,104.631008 35.9161653,104.41838 C35.1936529,104.199405 34.7207934,103.613355 34.8667769,103.107702 C35.0169917,102.604165 35.7384463,102.367207 36.4673058,102.594645 C37.1887603,102.812562 37.6626777,103.39438 37.5124628,103.903207" id="Fill-10"></path>
            <path d="M42.7403636,104.286149 C42.7583471,104.812959 42.1447934,105.249851 41.3852562,105.259372 C40.6214876,105.276298 40.0037025,104.849983 39.9952397,104.331636 C39.9952397,103.799537 40.5950413,103.366876 41.3588099,103.354182 C42.1183471,103.339372 42.7403636,103.762512 42.7403636,104.286149" id="Fill-11"></path>
            <path d="M47.6054215,103.457851 C47.6963967,103.971967 47.1685289,104.499835 46.414281,104.640529 C45.6727273,104.775934 44.9861818,104.458579 44.8920331,103.948694 C44.8,103.421884 45.3373884,102.894017 46.0778843,102.757554 C46.8331901,102.62638 47.509157,102.935273 47.6054215,103.457851" id="Fill-12"></path>
        </g>
    </g>
</svg>