<?xml version="1.0" encoding="UTF-8"?>
<svg width="128px" height="128px" viewBox="0 0 128 128" version="1.1" xmlns="http://www.w3.org/2000/svg" xmlns:xlink="http://www.w3.org/1999/xlink">
    <!-- Generator: Sketch 53.2 (72643) - https://sketchapp.com -->
    <title>github</title>
    <desc>Created with Sketch.</desc>
    <g id="github" stroke="none" stroke-width="1" fill="none" fill-rule="evenodd">
        <path d="M75.4495835,99.75629 L75.4495835,101 L53.4495835,101 L53.4495835,99.9408409 C54.0069835,100.104257 54.5697591,100.255242 55.1375835,100.393472 C55.1305835,95.7695959 55.1175835,86.9733168 55.1135835,86.6518284 C55.0455835,86.6081695 47.9675835,90.72203 44.3565835,83.530216 C43.9205835,82.6411618 43.0445835,79.6693788 40.8495835,78.0053788 C40.7715835,77.9408827 39.1505835,77.118309 39.0015835,76.3126036 C38.9845835,76.2004796 39.1065835,75.9643246 39.2655835,75.9057819 C39.4315835,75.8442625 42.0995835,74.7577509 45.0735835,78.5005106 C45.9695835,79.7537199 47.9935835,84.5601695 55.0775835,81.5893788 C55.2655835,80.8491618 55.4035835,79.6406036 56.9345835,78.2663401 C46.3855835,77.0170997 42.5305835,73.4330997 41.0365835,64.4840145 C40.1025835,58.3826811 41.8965835,53.3113013 44.5925835,50.8088517 C44.1845835,50.2760145 42.8385835,45.8178439 44.9305835,41.1026811 C47.1975835,40.6522005 51.3545835,42.2675804 55.0085835,44.8801695 C60.1615835,43.0316114 69.8385835,43.5108672 73.3005835,44.8801695 C74.9465835,43.5287277 80.8225835,40.3743711 83.3435835,41.1096269 C84.0845835,42.981999 85.1545835,47.5175649 83.6765835,50.8237354 C86.9605835,54.1775339 87.8855835,58.5086966 87.2935835,63.8281385 C86.5675835,71.8891618 82.4565835,77.3167587 71.2805835,78.2663401 C73.1425835,79.570154 74.8525835,81.3601695 74.8525835,84.3954563 C74.8525835,87.6569757 74.8505835,95.4669602 74.8485835,99.93803 C75.0496213,99.8790618 75.2499598,99.8184768 75.4495835,99.75629 Z" id="Combined-Shape" fill="#333333"></path>
        <path d="M64,127.041488 C28.653776,127.041488 0,98.6022825 0,63.5207442 C0,28.4392059 28.653776,0 64,0 C99.346224,0 128,28.4392059 128,63.5207442 C128,98.6022825 99.346224,127.041488 64,127.041488 Z M64,101 C84.7106781,101 101.5,84.2106781 101.5,63.5 C101.5,42.7893219 84.7106781,26 64,26 C43.2893219,26 26.5,42.7893219 26.5,63.5 C26.5,84.2106781 43.2893219,101 64,101 Z" id="Combined-Shape" fill="#4078C0" fill-rule="nonzero"></path>
    </g>
</svg>