<?xml version="1.0" encoding="UTF-8"?>
<svg width="128px" height="128px" viewBox="0 0 128 128" version="1.1" xmlns="http://www.w3.org/2000/svg" xmlns:xlink="http://www.w3.org/1999/xlink">
    <!-- Generator: Sketch 53.2 (72643) - https://sketchapp.com -->
    <title>instagram-grey</title>
    <desc>Created with Sketch.</desc>
    <defs>
        <polygon id="path-1" points="0 0.0266076043 84.9731845 0.0266076043 84.9731845 84.3310447 0 84.3310447"></polygon>
    </defs>
    <g id="instagram-grey" stroke="none" stroke-width="1" fill="none" fill-rule="evenodd">
        <g id="instagram">
            <ellipse id="Oval" fill="#999999" fill-rule="nonzero" cx="64" cy="63.5207442" rx="64" ry="63.5207442"></ellipse>
            <g id="logo" transform="translate(22.000000, 22.821705)">
                <mask id="mask-2" fill="white">
                    <use xlink:href="#path-1"></use>
                </mask>
                <g id="Clip-2"></g>
                <path d="M42.4866766,0.0266076043 C30.9479266,0.0266076043 29.5010714,0.075137197 24.9694246,0.280300234 C20.4472222,0.48496124 17.3587202,1.19767688 14.6562599,2.23989172 C11.8623909,3.31708133 9.49301587,4.75857758 7.13089286,7.10222222 C4.76893849,9.44603421 3.31618056,11.797042 2.2305754,14.5692531 C1.18021825,17.2507641 0.461934524,20.3153242 0.255674603,24.8024708 C0.0489087302,29.2989886 0,30.7346278 0,42.1839301 C0,53.6330651 0.0489087302,55.0687043 0.255674603,59.5652221 C0.461934524,64.0523686 1.18021825,67.1169288 2.2305754,69.7984398 C3.31618056,72.5706509 4.76893849,74.9216587 7.13089286,77.2654707 C9.49301587,79.6091153 11.8623909,81.0506115 14.6562599,82.1279685 C17.3587202,83.170016 20.4472222,83.8827316 24.9694246,84.0873926 C29.5010714,84.2925557 30.9479266,84.3410853 42.4866766,84.3410853 C54.0252579,84.3410853 55.4721131,84.2925557 60.0037599,84.0873926 C64.5259623,83.8827316 67.6144643,83.170016 70.3169246,82.1279685 C73.1107937,81.0506115 75.4801687,79.6091153 77.8422917,77.2654707 C80.204246,74.9216587 81.657004,72.5706509 82.7427778,69.7984398 C83.7929663,67.1169288 84.51125,64.0523686 84.7175099,59.5652221 C84.9242758,55.0687043 84.9731845,53.6330651 84.9731845,42.1839301 C84.9731845,30.7346278 84.9242758,29.2989886 84.7175099,24.8024708 C84.51125,20.3153242 83.7929663,17.2507641 82.7427778,14.5692531 C81.657004,11.797042 80.204246,9.44603421 77.8422917,7.10222222 C75.4801687,4.75857758 73.1107937,3.31708133 70.3169246,2.23989172 C67.6144643,1.19767688 64.5259623,0.48496124 60.0037599,0.280300234 C55.4721131,0.075137197 54.0252579,0.0266076043 42.4866766,0.0266076043 Z M42.4866766,7.62249292 C53.8309722,7.62249292 55.1747817,7.66550018 59.6548214,7.86832041 C63.7972222,8.05574505 66.0468552,8.74252246 67.5439683,9.31985727 C69.5271329,10.0846167 70.9424504,10.9981445 72.4291071,12.4734441 C73.9159325,13.9485764 74.8365972,15.3529224 75.6073313,17.3207137 C76.1891766,18.8062212 76.8813194,21.0384152 77.0702083,25.1487043 C77.2746131,29.594015 77.3179563,30.9274074 77.3179563,42.1839301 C77.3179563,53.4402855 77.2746131,54.7736779 77.0702083,59.2189886 C76.8813194,63.3292777 76.1891766,65.5614716 75.6073313,67.0469792 C74.8365972,69.0147705 73.9159325,70.4191165 72.4291071,71.8942488 C70.9424504,73.3695484 69.5271329,74.2830762 67.5439683,75.0478356 C66.0468552,75.6251704 63.7972222,76.3119478 59.6548214,76.4993725 C55.1754563,76.7021927 53.8318155,76.7452 42.4866766,76.7452 C31.141369,76.7452 29.7978968,76.7021927 25.3183631,76.4993725 C21.1759623,76.3119478 18.9263294,75.6251704 17.4292163,75.0478356 C15.4460516,74.2830762 14.0307341,73.3695484 12.5440774,71.8942488 C11.0574206,70.4191165 10.1365873,69.0147705 9.36585317,67.0469792 C8.78400794,65.5614716 8.09186508,63.3292777 7.90297619,59.2189886 C7.69857143,54.7736779 7.65522817,53.4402855 7.65522817,42.1839301 C7.65522817,30.9274074 7.69857143,29.594015 7.90297619,25.1487043 C8.09186508,21.0384152 8.78400794,18.8062212 9.36585317,17.3207137 C10.1365873,15.3529224 11.057252,13.9485764 12.5440774,12.4734441 C14.0307341,10.9981445 15.4460516,10.0846167 17.4292163,9.31985727 C18.9263294,8.74252246 21.1759623,8.05574505 25.3183631,7.86832041 C29.7984028,7.66550018 31.1422123,7.62249292 42.4866766,7.62249292 L42.4866766,7.62249292 Z" id="Fill-1" fill="#FFFFFF" mask="url(#mask-2)"></path>
                <path d="M42.4866766,56.2362594 C34.6649901,56.2362594 28.3243948,49.944816 28.3243948,42.1839301 C28.3243948,34.4228768 34.6649901,28.1314335 42.4866766,28.1314335 C50.3081944,28.1314335 56.6487897,34.4228768 56.6487897,42.1839301 C56.6487897,49.944816 50.3081944,56.2362594 42.4866766,56.2362594 Z M42.4866766,20.5355482 C30.4370833,20.5355482 20.6691667,30.2277446 20.6691667,42.1839301 C20.6691667,54.1399483 30.4370833,63.8321447 42.4866766,63.8321447 C54.5361012,63.8321447 64.3040179,54.1399483 64.3040179,42.1839301 C64.3040179,30.2277446 54.5361012,20.5355482 42.4866766,20.5355482 L42.4866766,20.5355482 Z" id="Fill-4" fill="#FFFFFF" mask="url(#mask-2)"></path>
                <path d="M70.2644742,19.6802559 C70.2644742,22.4742217 67.9817857,24.7390476 65.1659921,24.7390476 C62.3503671,24.7390476 60.0676786,22.4742217 60.0676786,19.6802559 C60.0676786,16.8862901 62.3503671,14.6212969 65.1659921,14.6212969 C67.9817857,14.6212969 70.2644742,16.8862901 70.2644742,19.6802559" id="Fill-5" fill="#FFFFFF" mask="url(#mask-2)"></path>
            </g>
        </g>
    </g>
</svg>