<?xml version="1.0" encoding="UTF-8"?>
<svg width="128px" height="128px" viewBox="0 0 128 128" version="1.1" xmlns="http://www.w3.org/2000/svg" xmlns:xlink="http://www.w3.org/1999/xlink">
    <!-- Generator: Sketch 53.2 (72643) - https://sketchapp.com -->
    <title>linkedin</title>
    <desc>Created with Sketch.</desc>
    <g id="linkedin" stroke="none" stroke-width="1" fill="none" fill-rule="evenodd">
        <g fill-rule="nonzero">
            <ellipse id="Oval" fill="#0077B5" cx="64" cy="63.5207442" rx="64" ry="63.5207442"></ellipse>
            <path d="M38.81,86.6024186 L50.396,86.6024186 L50.396,46.3617984 L38.81,46.3617984 L38.81,86.6024186 Z M83.043,48.655876 C78.73,46.2526512 72.364,46.0512248 67.777,48.1270078 L67.777,46.3627907 L56.191,46.3627907 L56.191,86.6034109 L67.777,86.6034109 L67.777,60.8654884 L72.552,58.5853023 C73.724,58.0266667 76.289,58.0762791 77.376,58.6835349 C78.195,59.139969 79.363,61.0192868 79.363,62.1722791 L79.363,86.6024186 L90.951,86.6024186 L90.951,62.1722791 C90.952,56.8875659 87.625,51.2009922 83.043,48.655876 Z M44.604,27.6787597 C40.6,27.6787597 37.362,30.8956279 37.362,34.8656124 C37.362,38.8346047 40.6,42.0504806 44.604,42.0504806 C48.61,42.0504806 51.846,38.8346047 51.846,34.8656124 C51.846,30.8956279 48.609,27.6787597 44.604,27.6787597 Z" id="Shape" fill="#FFFFFF"></path>
        </g>
    </g>
</svg>