<?xml version="1.0" encoding="UTF-8"?>
<svg width="128px" height="128px" viewBox="0 0 128 128" version="1.1" xmlns="http://www.w3.org/2000/svg" xmlns:xlink="http://www.w3.org/1999/xlink">
    <!-- Generator: Sketch 53.2 (72643) - https://sketchapp.com -->
    <title>twitter</title>
    <desc>Created with Sketch.</desc>
    <g id="twitter" stroke="none" stroke-width="1" fill="none" fill-rule="evenodd">
        <g fill-rule="nonzero">
            <ellipse id="Oval" fill="#1DA1F2" cx="64" cy="63.5207442" rx="64" ry="63.5207442"></ellipse>
            <path d="M92.648,47.0563721 C97.21,44.1004651 97.613,40.0461395 97.613,40.0461395 C96.137,42.0663566 89.562,43.1429457 89.562,43.1429457 C83.927,36.5454884 75.473,40.0461395 75.473,40.0461395 C65.545,43.5477829 67.021,54.9933643 67.021,54.9933643 C49.713,54.7244651 40.321,41.5285581 40.321,41.5285581 C35.154,52.2994109 43.877,58.8313798 43.877,58.8313798 C41.931,59.0328062 38.443,57.4848992 38.443,57.4848992 C38.309,67.3835659 48.64,70.8871938 48.64,70.8871938 C47.701,71.020155 43.272,71.020155 43.272,71.020155 C45.554,79.1010233 55.212,79.9087132 55.212,79.9087132 C45.82,86.9129922 36.429,85.7004651 36.429,85.7004651 C45.687,92.7027597 54.861,91.9635349 61.117,91.0873798 C76.496,88.9292403 84.732,77.7535504 84.732,77.7535504 C95.599,63.8829147 91.977,52.1664496 93.722,51.4937054 C93.75,51.4817984 93.78,51.4698915 93.81,51.4550078 C95.607,50.6443411 99.759,45.4340465 99.759,45.4340465 C96.809,47.0474419 92.648,47.0563721 92.648,47.0563721 Z" id="Path" fill="#FFFFFF"></path>
        </g>
    </g>
</svg>